<svg width="17" height="13" viewBox="0 0 17 13" fill="none" xmlns="http://www.w3.org/2000/svg">
<path d="M16.3848 10.9796H2.88483V1.47961C2.88483 1.20336 2.66108 0.979614 2.38483 0.979614H1.38483C1.10858 0.979614 0.884827 1.20336 0.884827 1.47961V11.9796C0.884827 12.5318 1.33264 12.9796 1.88483 12.9796H16.3848C16.6611 12.9796 16.8848 12.7559 16.8848 12.4796V11.4796C16.8848 11.2034 16.6611 10.9796 16.3848 10.9796ZM15.3848 1.97961H11.6955C11.0273 1.97961 10.6926 2.78743 11.1651 3.25993L12.1776 4.27243L9.88483 6.56555L7.59201 4.27274C7.20139 3.88211 6.56826 3.88211 6.17795 4.27274L4.03139 6.4193C3.83608 6.61461 3.83608 6.93118 4.03139 7.12649L4.73826 7.83336C4.93358 8.02868 5.25014 8.02868 5.44545 7.83336L6.88483 6.39368L9.17764 8.68649C9.56826 9.07711 10.2014 9.07711 10.5917 8.68649L13.5917 5.68649L14.6042 6.69899C15.0767 7.17149 15.8845 6.8368 15.8845 6.16868V2.47961C15.8848 2.20336 15.6611 1.97961 15.3848 1.97961Z" fill="#60C5AB"/>
</svg>
